<svg xmlns="http://www.w3.org/2000/svg" viewBox="0 0 64 64"><defs><style>.a{fill:#eee;}.b{fill:#bdbdbd;}</style></defs><title>rice-single</title><path class="a" d="M45.94,50.75l-3.07.77a16,16,0,0,1-12.76-2.21l-14.55-9.7A8,8,0,0,1,12,33V29a8,8,0,0,1,6.06-7.76l3.07-.77a16,16,0,0,1,12.76,2.21l14.55,9.7A8,8,0,0,1,52,39v4A8,8,0,0,1,45.94,50.75Z"/><path class="b" d="M45.94,46.75l-3.07.77a16,16,0,0,1-12.76-2.21l-14.55-9.7A8,8,0,0,1,12,29v4a8,8,0,0,0,3.56,6.66l14.55,9.7a16,16,0,0,0,12.76,2.21l3.07-.77A8,8,0,0,0,52,43V39A8,8,0,0,1,45.94,46.75Z"/></svg>