<svg xmlns="http://www.w3.org/2000/svg" viewBox="0 0 64 64"><defs><style>.a{fill:#eee;}.b{fill:#bdbdbd;}</style></defs><title>rice-double</title><path class="a" d="M53.94,44.75l-3.07.77a16,16,0,0,1-12.76-2.21l-14.55-9.7A8,8,0,0,1,20,27V23a8,8,0,0,1,6.06-7.76l3.07-.77a16,16,0,0,1,12.76,2.21l14.55,9.7A8,8,0,0,1,60,33v4A8,8,0,0,1,53.94,44.75Z"/><path class="b" d="M60,33a8,8,0,0,1-6.06,7.73l-3.07.77A16,16,0,0,1,46,42V41a8,8,0,0,0-3.56-6.66l-14.55-9.7A16,16,0,0,0,20.07,22,8.08,8.08,0,0,0,20,23h0v4a8,8,0,0,0,3.56,6.66l14.55,9.7c.42.28.85.53,1.29.76l.29.15c.43.22.87.42,1.31.6l.25.09q.59.23,1.2.41l.29.09c.45.12.9.23,1.36.31l.37.06c.43.07.86.12,1.29.16l.17,0h0a16,16,0,0,0,4.93-.44l3.07-.77A8,8,0,0,0,60,37V33Z"/><path class="a" d="M37.94,54.75l-3.07.77a16,16,0,0,1-12.76-2.21L7.56,43.61A8,8,0,0,1,4,37V33a8,8,0,0,1,6.06-7.76l3.07-.77a16,16,0,0,1,12.76,2.21l14.55,9.7A8,8,0,0,1,44,43v4A8,8,0,0,1,37.94,54.75Z"/><path class="b" d="M37.94,50.75l-3.07.77a16,16,0,0,1-12.76-2.21L7.56,39.61A8,8,0,0,1,4,33v4a8,8,0,0,0,3.56,6.66l14.55,9.7a16,16,0,0,0,12.76,2.21l3.07-.77A8,8,0,0,0,44,47V43A8,8,0,0,1,37.94,50.75Z"/></svg>