<svg xmlns="http://www.w3.org/2000/svg" viewBox="0 0 64 64"><defs><style>.a{fill:#212121;}.b{fill:#424242;}.c{fill:#eee;}.d{fill:#d32f2f;}</style></defs><title>roll-tuna</title><path class="a" d="M30,22V38c0,3.87,6.27,7,14,7s14-3.13,14-7V22Z"/><ellipse class="b" cx="44" cy="22" rx="14" ry="7"/><ellipse class="c" cx="44" cy="22" rx="12" ry="6"/><path class="a" d="M6,30V46c0,3.87,6.27,7,14,7s14-3.13,14-7V30Z"/><ellipse class="b" cx="20" cy="30" rx="14" ry="7"/><ellipse class="c" cx="20" cy="30" rx="12" ry="6"/><path class="d" d="M19.11,26.45l-6.21,3.11a.5.5,0,0,0,0,.89l6.21,3.11a2,2,0,0,0,1.79,0l6.21-3.11a.5.5,0,0,0,0-.89l-6.21-3.11A2,2,0,0,0,19.11,26.45Z"/><path class="d" d="M43.11,18.45l-6.21,3.11a.5.5,0,0,0,0,.89l6.21,3.11a2,2,0,0,0,1.79,0l6.21-3.11a.5.5,0,0,0,0-.89l-6.21-3.11A2,2,0,0,0,43.11,18.45Z"/></svg>