<svg xmlns="http://www.w3.org/2000/svg" viewBox="0 0 64 64"><defs><style>.a{fill:#eee;}.b{fill:#bdbdbd;}.c{fill:#ff7043;}.d{fill:#f4511e;}.e{fill:#ff8a65;}</style></defs><title>salmon</title><path class="a" d="M53.94,44.75l-3.07.77a16,16,0,0,1-12.76-2.21l-14.55-9.7A8,8,0,0,1,20,27V23a8,8,0,0,1,6.06-7.76l3.07-.77a16,16,0,0,1,12.76,2.21l14.55,9.7A8,8,0,0,1,60,33v4A8,8,0,0,1,53.94,44.75Z"/><path class="b" d="M60,33a8,8,0,0,1-6.06,7.73l-3.07.77A16,16,0,0,1,46,42V41a8,8,0,0,0-3.56-6.66l-14.55-9.7A16,16,0,0,0,20.07,22,8.08,8.08,0,0,0,20,23h0v4a8,8,0,0,0,3.56,6.66l14.55,9.7c.42.28.85.53,1.29.76l.29.15c.43.22.87.42,1.31.6l.25.09q.59.23,1.2.41l.29.09c.45.12.9.23,1.36.31l.37.06c.43.07.86.12,1.29.16l.17,0h0a16,16,0,0,0,4.93-.44l3.07-.77A8,8,0,0,0,60,37V33Z"/><path class="a" d="M37.94,54.75l-3.07.77a16,16,0,0,1-12.76-2.21L7.56,43.61A8,8,0,0,1,4,37V33a8,8,0,0,1,6.06-7.76l3.07-.77a16,16,0,0,1,12.76,2.21l14.55,9.7A8,8,0,0,1,44,43v4A8,8,0,0,1,37.94,54.75Z"/><path class="b" d="M37.94,50.75l-3.07.77a16,16,0,0,1-12.76-2.21L7.56,39.61A8,8,0,0,1,4,33v4a8,8,0,0,0,3.56,6.66l14.55,9.7a16,16,0,0,0,12.76,2.21l3.07-.77A8,8,0,0,0,44,47V43A8,8,0,0,1,37.94,50.75Z"/><path class="c" d="M31.53,10l-11,6a1,1,0,0,0-.5.87v3.61a1,1,0,0,0,.47.84c9.63,5.89,22,11.07,30,20.71A1,1,0,0,0,52,42l9.8-11.11a1,1,0,0,0,.2-.6v-4a.87.87,0,0,0-.3-.72C54,20,42,14,32.47,10A1,1,0,0,0,31.53,10Z"/><path class="d" d="M61.8,26.89,52,38a1,1,0,0,1-1.57,0c-8.43-8-20.33-14.82-30-20.71a1,1,0,0,1-.45-.65,1,1,0,0,0,0,.19v3.61a1,1,0,0,0,.47.84c9.63,5.89,22,11.07,30,20.71A1,1,0,0,0,52,42l9.8-11.11a1,1,0,0,0,.2-.6v-4h0A1,1,0,0,1,61.8,26.89Z"/><path class="e" d="M21.09,17.7,24,19.46l18.35-5q-1.71-.83-3.41-1.62Z"/><path class="e" d="M33.84,25.54l20-5q-1.5-.87-3.07-1.73L31,23.75Z"/><path class="e" d="M42.92,31.77l18.7-4.67.18-.21a1,1,0,0,0,.2-.6h0a.87.87,0,0,0-.3-.72l-1-.74-20.3,5.07Q41.66,30.83,42.92,31.77Z"/><path class="c" d="M15.53,18l-13,5.58a1,1,0,0,0-.5.87v3.61a1,1,0,0,0,.47.84A141.9,141.9,0,0,1,33.2,55.63a1,1,0,0,0,1.57,0l11-14.71a1,1,0,0,0,.2-.6v-4a.89.89,0,0,0-.3-.72C36,28,24.44,22,16.47,18A1,1,0,0,0,15.53,18Z"/><path class="d" d="M45.8,36.89l-11,14.71a1,1,0,0,1-1.57,0A141.89,141.89,0,0,0,2.47,24.91,1,1,0,0,1,2,24.26a1,1,0,0,0,0,.19v3.61a1,1,0,0,0,.47.84A141.89,141.89,0,0,1,33.2,55.63a1,1,0,0,0,1.57,0l11-14.71a1,1,0,0,0,.2-.6v-4h0A1,1,0,0,1,45.8,36.89Z"/><path class="e" d="M21.68,20.64,6,27.2l2,1.4,16.52-6.46Z"/><path class="c" d="M8,32.59v-4L6,27.2v4Q7,31.87,8,32.59Z"/><path class="e" d="M33,27,14,33.1l2,1.7,19.8-6.12Q34.41,27.8,33,27Z"/><path class="c" d="M14,37.15l2,1.63v-4l-2-1.7Z"/><path class="e" d="M46,36.29a.89.89,0,0,0-.3-.72l-1.48-1.13L22,40l2,1.9,22-5.41Z"/><path class="c" d="M22,44q1,.93,2,1.87v-4L22,40Z"/></svg>