<svg xmlns="http://www.w3.org/2000/svg" viewBox="0 0 64 64"><defs><style>.a{fill:#eee;}.b{fill:#bdbdbd;}.c{fill:#ffebee;}.d{fill:#ef9a9a;}.e{fill:#ffcdd2;}.f{fill:#e57373;}</style></defs><title>sea-bream</title><path class="a" d="M53.94,44.75l-3.07.77a16,16,0,0,1-12.76-2.21l-14.55-9.7A8,8,0,0,1,20,27V23a8,8,0,0,1,6.06-7.76l3.07-.77a16,16,0,0,1,12.76,2.21l14.55,9.7A8,8,0,0,1,60,33v4A8,8,0,0,1,53.94,44.75Z"/><path class="b" d="M60,33a8,8,0,0,1-6.06,7.73l-3.07.77A16,16,0,0,1,46,42V41a8,8,0,0,0-3.56-6.66l-14.55-9.7A16,16,0,0,0,20.07,22,8.08,8.08,0,0,0,20,23h0v4a8,8,0,0,0,3.56,6.66l14.55,9.7c.42.28.85.53,1.29.76l.29.15c.43.22.87.42,1.31.6l.25.09q.59.23,1.2.41l.29.09c.45.12.9.23,1.36.31l.37.06c.43.07.86.12,1.29.16l.17,0h0a16,16,0,0,0,4.93-.44l3.07-.77A8,8,0,0,0,60,37V33Z"/><path class="a" d="M37.94,54.75l-3.07.77a16,16,0,0,1-12.76-2.21L7.56,43.61A8,8,0,0,1,4,37V33a8,8,0,0,1,6.06-7.76l3.07-.77a16,16,0,0,1,12.76,2.21l14.55,9.7A8,8,0,0,1,44,43v4A8,8,0,0,1,37.94,54.75Z"/><path class="b" d="M37.94,50.75l-3.07.77a16,16,0,0,1-12.76-2.21L7.56,39.61A8,8,0,0,1,4,33v4a8,8,0,0,0,3.56,6.66l14.55,9.7a16,16,0,0,0,12.76,2.21l3.07-.77A8,8,0,0,0,44,47V43A8,8,0,0,1,37.94,50.75Z"/><path class="c" d="M35.7,12,16.8,15.8a1,1,0,0,0-.8,1v2.65a1,1,0,0,0,.62.92c9.71,3.93,21.16,9.72,29,17.36a1,1,0,0,0,.93.25l14.7-3.68a1,1,0,0,0,.76-1V30.38a1,1,0,0,0-.29-.71C55.74,23.76,46,16,36.28,12.07A1,1,0,0,0,35.7,12Z"/><path class="d" d="M61.24,31.29,46.54,35a1,1,0,0,1-.93-.25c-7.83-7.64-19.28-13.43-29-17.36a1,1,0,0,1-.59-.73,1,1,0,0,0,0,.16v2.65a1,1,0,0,0,.62.92c9.71,3.93,21.16,9.72,29,17.36a1,1,0,0,0,.93.25l14.7-3.68a1,1,0,0,0,.76-1v-3A1,1,0,0,1,61.24,31.29Z"/><path class="e" d="M40.1,13.82c-11-.21-16.73,2.69-19.31,5.3q1.25.55,2.51,1.14c3.39-3.67,9.85-5.07,20.53-4.41C42.6,15.13,41.35,14.45,40.1,13.82Z"/><path class="e" d="M50.46,20.19c-9-1.26-16.92-.13-21.16,3.07.86.46,1.72.93,2.57,1.42C36.53,21.19,43.6,21,53.31,22.32,52.39,21.6,51.44,20.89,50.46,20.19Z"/><path class="e" d="M59.58,27.64q-1.05-1-2.21-2c-9.07-.95-15.63.73-18.55,3.44q1.1.78,2.15,1.59C43.73,27.82,50,26.4,59.58,27.64Z"/><path class="c" d="M19.69,20,2.78,23.78a1,1,0,0,0-.78,1v2.58a1,1,0,0,0,.62.93c6.18,2.39,19.1,11.63,25.05,17.46a1,1,0,0,0,.78.28l20.63-1.88a1,1,0,0,0,.91-1V40.38a1,1,0,0,0-.29-.71c-6.09-6-19.6-15.58-29.42-19.59A1,1,0,0,0,19.69,20Z"/><path class="e" d="M8.65,31.39q7-6.49,19.74-7.28-1.76-1-3.48-1.88-12.16,1.1-18.82,7.69Q7.31,30.58,8.65,31.39Z"/><path class="e" d="M42.55,33.58c-.94-.72-1.91-1.44-2.91-2.17-9.91-1.06-17.88.14-21.5,6.38.73.54,1.45,1.08,2.15,1.63C22.94,34,30.77,32.36,42.55,33.58Z"/><path class="d" d="M49.09,41.12,28.46,43a1,1,0,0,1-.78-.28c-6-5.83-18.87-15.07-25.05-17.46a1,1,0,0,1-.59-.7,1,1,0,0,0,0,.19v2.58a1,1,0,0,0,.62.93c6.18,2.39,19.1,11.63,25.05,17.46a1,1,0,0,0,.78.28l20.63-1.88a1,1,0,0,0,.91-1V40.38a1,1,0,0,0,0-.13A1,1,0,0,1,49.09,41.12Z"/><path class="f" d="M23.05,41.63c1.76,1.45,3.36,2.85,4.62,4.08a1,1,0,0,0,.32.2v-3a1,1,0,0,1-.32-.2,83.17,83.17,0,0,0-6.39-5.51Z"/><path class="f" d="M7.59,30.76a114.42,114.42,0,0,1,9.71,6.42l-.92-3.66a103.78,103.78,0,0,0-10-6.46Z"/></svg>