<svg xmlns="http://www.w3.org/2000/svg" viewBox="0 0 64 64"><defs><style>.a{fill:#eee;}.b{fill:#bdbdbd;}.c{fill:#ffcdd2;}.d{fill:#e57373;}.e{fill:#757575;}.f{fill:#d32f2f;}.g{fill:#b71c1c;}</style></defs><title>yellowtail</title><path class="a" d="M53.94,44.75l-3.07.77a16,16,0,0,1-12.76-2.21l-14.55-9.7A8,8,0,0,1,20,27V23a8,8,0,0,1,6.06-7.76l3.07-.77a16,16,0,0,1,12.76,2.21l14.55,9.7A8,8,0,0,1,60,33v4A8,8,0,0,1,53.94,44.75Z"/><path class="b" d="M60,33a8,8,0,0,1-6.06,7.73l-3.07.77A16,16,0,0,1,46,42V41a8,8,0,0,0-3.56-6.66l-14.55-9.7A16,16,0,0,0,20.07,22,8.08,8.08,0,0,0,20,23h0v4a8,8,0,0,0,3.56,6.66l14.55,9.7c.42.28.85.53,1.29.76l.29.15c.43.22.87.42,1.31.6l.25.09q.59.23,1.2.41l.29.09c.45.12.9.23,1.36.31l.37.06c.43.07.86.12,1.29.16l.17,0h0a16,16,0,0,0,4.93-.44l3.07-.77A8,8,0,0,0,60,37V33Z"/><path class="a" d="M37.94,54.75l-3.07.77a16,16,0,0,1-12.76-2.21L7.56,43.61A8,8,0,0,1,4,37V33a8,8,0,0,1,6.06-7.76l3.07-.77a16,16,0,0,1,12.76,2.21l14.55,9.7A8,8,0,0,1,44,43v4A8,8,0,0,1,37.94,54.75Z"/><path class="b" d="M37.94,50.75l-3.07.77a16,16,0,0,1-12.76-2.21L7.56,39.61A8,8,0,0,1,4,33v4a8,8,0,0,0,3.56,6.66l14.55,9.7a16,16,0,0,0,12.76,2.21l3.07-.77A8,8,0,0,0,44,47V43A8,8,0,0,1,37.94,50.75Z"/><path class="c" d="M31.53,10.13l-11,6A1,1,0,0,0,20,17v3.61a1,1,0,0,0,.47.84c9.63,5.89,22,11.07,30,20.71a1,1,0,0,0,1.57,0L61.8,31a1,1,0,0,0,.2-.6v-4a.87.87,0,0,0-.3-.72C54,20.13,42,14.13,32.47,10.1A1,1,0,0,0,31.53,10.13Z"/><path class="d" d="M61.8,27,52,38.13a1,1,0,0,1-1.57,0c-8.43-8-20.33-14.82-30-20.71a1,1,0,0,1-.45-.65A1,1,0,0,0,20,17v3.61a1,1,0,0,0,.47.84c9.63,5.89,22,11.07,30,20.71a1,1,0,0,0,1.57,0L61.8,31a1,1,0,0,0,.2-.6v-4h0A1,1,0,0,1,61.8,27Z"/><path class="e" d="M51,38.46a1.22,1.22,0,0,1-.57-.29c-8.43-8-20.33-14.82-30-20.71a1,1,0,0,1-.45-.65A1,1,0,0,0,20,17v3.61a1,1,0,0,0,.47.84c9.63,5.89,22,11.07,30,20.71a1,1,0,0,0,.57.32Z"/><path class="f" d="M38.51,28.75a95.27,95.27,0,0,1,11.92,9.41,1,1,0,0,0,1.57,0l3.71-4.21Z"/><path class="g" d="M55.68,34,52,38.13a.93.93,0,0,1-1,.33v4a1,1,0,0,0,1-.35L55.68,38Z"/><path class="c" d="M15.53,18.13l-13,5.58a1,1,0,0,0-.5.87v3.61a1,1,0,0,0,.47.84A141.9,141.9,0,0,1,33.2,55.76a1,1,0,0,0,1.57,0L45.8,41a1,1,0,0,0,.2-.6v-4a.89.89,0,0,0-.3-.72C36,28.13,24.44,22.12,16.47,18.1A1,1,0,0,0,15.53,18.13Z"/><path class="d" d="M45.8,37l-11,14.71a1,1,0,0,1-1.57,0A141.89,141.89,0,0,0,2.47,25,1,1,0,0,1,2,24.39a1,1,0,0,0,0,.19v3.61a1,1,0,0,0,.47.84A141.89,141.89,0,0,1,33.2,55.76a1,1,0,0,0,1.57,0L45.8,41a1,1,0,0,0,.2-.6v-4h0A1,1,0,0,1,45.8,37Z"/><path class="e" d="M34,52.12a1,1,0,0,1-.8-.36A141.89,141.89,0,0,0,2.47,25,1,1,0,0,1,2,24.39a1,1,0,0,0,0,.19v3.61a1,1,0,0,0,.47.84A141.89,141.89,0,0,1,33.2,55.76a1,1,0,0,0,.8.36Z"/><path class="f" d="M39.23,45.77l-16.52-5A119.73,119.73,0,0,1,33.2,51.76a1,1,0,0,0,1.57,0Z"/><path class="g" d="M34,56.12a1,1,0,0,0,.77-.4l4.46-5.95v-4l-4.46,5.95a1,1,0,0,1-.77.4Z"/></svg>